<?xml version="1.0" standalone="no"?><!DOCTYPE svg PUBLIC "-//W3C//DTD SVG 1.1//EN" "http://www.w3.org/Graphics/SVG/1.1/DTD/svg11.dtd"><svg t="1590262083178" class="icon" viewBox="0 0 1024 1024" version="1.1" xmlns="http://www.w3.org/2000/svg" p-id="3272" xmlns:xlink="http://www.w3.org/1999/xlink" width="64" height="64"><defs><style type="text/css"></style></defs><path d="M936.486 336.907c13.839-14.39 13.393-37.274-0.999-51.113-14.39-13.84-37.274-13.393-51.113 0.999L513.984 660.57 138.417 288.375c-14.188-14.068-37.092-13.97-51.162 0.219-14.067 14.187-13.969 37.092 0.22 51.161L486.623 735.32c0.612 0.621 1.41 0.767 2.02 1.34 0.136 0.136 0.174 0.32 0.32 0.464l0.008 0.007c14.174 14.054 37.055 13.954 51.11-0.22l395.594-399.187c0.276-0.266 0.546-0.54 0.81-0.817z" p-id="3273" fill="#666666"></path></svg>